<?xml version="1.0" standalone="no"?>
<svg xmlns:xlink="http://www.w3.org/1999/xlink" id="wave" style="transform:rotate(0deg); transition: 0.3s" viewBox="0 0 1440 490" version="1.1" xmlns="http://www.w3.org/2000/svg"><defs><linearGradient id="sw-gradient-0" x1="0" x2="0" y1="1" y2="0"><stop stop-color="rgba(17, 50, 85, 1)" offset="0%"/><stop stop-color="rgba(17, 50, 85, 1)" offset="100%"/></linearGradient></defs><path style="transform:translate(0, 0px); opacity:1" fill="url(#sw-gradient-0)" d="M0,147L16,155.2C32,163,64,180,96,196C128,212,160,229,192,261.3C224,294,256,343,288,343C320,343,352,294,384,277.7C416,261,448,278,480,294C512,310,544,327,576,326.7C608,327,640,310,672,261.3C704,212,736,131,768,130.7C800,131,832,212,864,245C896,278,928,261,960,220.5C992,180,1024,114,1056,89.8C1088,65,1120,82,1152,98C1184,114,1216,131,1248,187.8C1280,245,1312,343,1344,343C1376,343,1408,245,1440,245C1472,245,1504,343,1536,392C1568,441,1600,441,1632,367.5C1664,294,1696,147,1728,122.5C1760,98,1792,196,1824,245C1856,294,1888,294,1920,277.7C1952,261,1984,229,2016,179.7C2048,131,2080,65,2112,98C2144,131,2176,261,2208,326.7C2240,392,2272,392,2288,392L2304,392L2304,490L2288,490C2272,490,2240,490,2208,490C2176,490,2144,490,2112,490C2080,490,2048,490,2016,490C1984,490,1952,490,1920,490C1888,490,1856,490,1824,490C1792,490,1760,490,1728,490C1696,490,1664,490,1632,490C1600,490,1568,490,1536,490C1504,490,1472,490,1440,490C1408,490,1376,490,1344,490C1312,490,1280,490,1248,490C1216,490,1184,490,1152,490C1120,490,1088,490,1056,490C1024,490,992,490,960,490C928,490,896,490,864,490C832,490,800,490,768,490C736,490,704,490,672,490C640,490,608,490,576,490C544,490,512,490,480,490C448,490,416,490,384,490C352,490,320,490,288,490C256,490,224,490,192,490C160,490,128,490,96,490C64,490,32,490,16,490L0,490Z"/></svg>